HIERARCHY
ROOT Hips
{
    OFFSET -0.1800 -22.3300 2.8200
    CHANNELS 6 Xposition Yposition Zposition Zrotation Yrotation Xrotation 
    JOINT LeftUpLeg
    {
        OFFSET -0.6800 6.9500 -9.1400
        CHANNELS 3 Zrotation Yrotation Xrotation
        JOINT LeftLeg
        {
            OFFSET -0.4500 3.4300 -37.5200
            CHANNELS 3 Zrotation Yrotation Xrotation
            JOINT LeftFoot
            {
                OFFSET -4.3700 -1.3600 -39.8000
                CHANNELS 3 Zrotation Yrotation Xrotation
                JOINT LeftToe
                {
                    OFFSET 11.9300 2.6400 -5.5800
                    CHANNELS 3 Zrotation Yrotation Xrotation
                    End Site
                    {
                        OFFSET 0.0000 0.0000 0.0000
                    }
                }
            }
        }
    }
    JOINT RightUpLeg
    {
        OFFSET -0.4300 -6.7700 -9.0500
        CHANNELS 3 Zrotation Yrotation Xrotation
        JOINT RightLeg
        {
            OFFSET -0.8900 -3.8300 -38.2600
            CHANNELS 3 Zrotation Yrotation Xrotation
            JOINT RightFoot
            {
                OFFSET -4.2300 1.5800 -39.8400
                CHANNELS 3 Zrotation Yrotation Xrotation
                JOINT RightToe
                {
                    OFFSET 12.3300 -2.5400 -4.8100
                    CHANNELS 3 Zrotation Yrotation Xrotation
                    End Site
                    {
                        OFFSET 0.0000 0.0000 0.0000
                    }
                }
            }
        }
    }
    JOINT Spine
    {
        OFFSET -2.6700 -0.2500 10.9000
        CHANNELS 3 Zrotation Yrotation Xrotation
        JOINT Spine1
        {
            OFFSET 0.1100 0.5500 13.5200
            CHANNELS 3 Zrotation Yrotation Xrotation
            JOINT Spine2
            {
                OFFSET 2.5400 0.1500 5.2900
                CHANNELS 3 Zrotation Yrotation Xrotation
                JOINT Neck
                {
                    OFFSET -4.2900 -0.2800 21.3900
                    CHANNELS 3 Zrotation Yrotation Xrotation
                    JOINT Head
                    {
                        OFFSET 5.1300 0.5200 6.5000
                        CHANNELS 3 Zrotation Yrotation Xrotation
                        End Site
                        {
                            OFFSET 0.0000 0.0000 0.0000
                        }
                    }
                }
                JOINT LeftShoulder
                {
                    OFFSET -3.4100 7.8800 12.1700
                    CHANNELS 3 Zrotation Yrotation Xrotation
                    JOINT LeftArm
                    {
                        OFFSET -0.8900 9.1000 3.0500
                        CHANNELS 3 Zrotation Yrotation Xrotation
                        JOINT LeftForeArm
                        {
                            OFFSET -2.7500 25.9600 -1.2800
                            CHANNELS 3 Zrotation Yrotation Xrotation
                            JOINT LeftHand
                            {
                                OFFSET -1.4900 8.4000 -0.8200
                                CHANNELS 3 Zrotation Yrotation Xrotation
                                End Site
                                {
                                    OFFSET 0.0000 0.0000 0.0000
                                }
                            }
                        }
                    }
                }
                JOINT RightShoulder
                {
                    OFFSET -3.8600 -8.1800 11.8800
                    CHANNELS 3 Zrotation Yrotation Xrotation
                    JOINT RightArm
                    {
                        OFFSET -0.9100 -9.6000 3.2600
                        CHANNELS 3 Zrotation Yrotation Xrotation
                        JOINT RightForeArm
                        {
                            OFFSET -2.1400 -25.3700 -1.3300
                            CHANNELS 3 Zrotation Yrotation Xrotation
                            JOINT RightHand
                            {
                                OFFSET -1.0300 -8.4600 -0.6100
                                CHANNELS 3 Zrotation Yrotation Xrotation
                                End Site
                                {
                                    OFFSET 0.0000 0.0000 0.0000
                                }
                            }
                        }
                    }
                }
            }
        }
    }
}
MOTION
Frames: 16
Frame Time: 0.016667
1.893210 59.196720 -2.324821 122.881165 1.437488 3.073044 6.815601 -21.061693 0.357090 -5.603137 31.428366 -17.776253 7.427772 -11.323264 3.615122 3.930985 1.670649 6.913284 -1.010535 -27.273935 -7.852813 -3.534884 37.805191 3.255777 3.612282 -12.632470 1.250924 -13.434024 3.766262 -2.633379 -1.451885 39.787750 -0.112831 -1.677298 -2.524354 0.478723 -0.265669 3.586870 -0.066250 -5.880252 -10.594029 -0.286592 -4.037303 -2.879041 1.952304 -12.851676 1.618055 -20.916143 -4.072329 0.644644 -44.342018 -22.519384 2.184450 5.216218 -8.459419 -17.846224 14.533585 9.294362 -1.438270 14.950692 7.850333 0.310416 49.383461 29.712734 8.393032 -11.414112 2.246323 -21.858366 15.095520 
1.786433 59.361534 -1.945837 122.108337 1.430535 2.554558 6.747197 -17.968002 0.332769 -7.811083 26.234116 -15.893921 7.427685 -11.422234 1.373078 -6.050815 3.602553 7.210395 -1.890234 -25.225929 -6.055149 -2.013609 33.843212 3.993579 3.317611 -12.135362 1.325696 -9.132483 7.103899 0.211343 -1.479640 36.205193 -0.700627 -1.353292 -2.477388 0.484897 -0.484655 4.472363 -0.179773 -4.964087 -9.396445 -0.862917 -2.653519 -3.842821 1.880782 -11.706105 3.047724 -20.411430 -1.889549 1.625774 -41.978550 -23.837151 3.150953 4.399140 -6.051409 -16.628159 6.608663 8.665819 1.280676 14.319956 5.437277 0.129533 47.076942 33.157177 12.198606 -8.950604 2.239035 -19.383490 20.587233 
1.675883 59.484524 -1.643844 121.792747 1.381662 2.095650 6.747197 -17.968002 0.332769 -7.811083 26.234116 -15.893921 7.427685 -11.422234 1.373078 -6.050815 3.602553 7.210395 -1.890234 -25.225929 -6.055149 -2.013609 33.843212 3.993579 3.317611 -12.135362 1.325696 -9.132483 7.103899 0.211343 -1.479640 36.205193 -0.700627 -1.353292 -2.477388 0.484897 -0.484655 4.472363 -0.179773 -4.964087 -9.396445 -0.862917 -2.653519 -3.842821 1.880782 -11.706105 3.047724 -20.411430 -1.889549 1.625774 -41.978550 -23.837151 3.150953 4.399140 -6.051409 -16.628159 6.608663 8.665819 1.280676 14.319956 5.437277 0.129533 47.076942 33.157177 12.198606 -8.950604 2.239035 -19.383490 20.587233 
1.576753 59.606861 -1.372739 121.590187 1.300513 1.710836 6.428684 -16.467962 0.546044 -7.480575 24.115244 -14.110820 8.418687 -10.655177 0.570974 -7.029381 -0.668217 5.260948 -2.775741 -24.000366 -4.894485 -0.894947 31.723112 4.712221 2.550749 -13.752774 1.660563 -9.386230 10.347103 1.820525 -1.454947 33.808617 -0.685549 -1.595170 -2.196442 0.859949 -1.036117 5.128628 0.166888 -4.086508 -10.113402 -1.651694 -1.850774 -4.531305 1.435020 -10.338094 4.521142 -20.334930 -0.255172 2.854819 -40.464710 -26.540850 3.592802 2.837205 -5.891682 -11.488677 8.916192 8.842654 3.328591 14.553742 4.255785 0.993563 43.458572 34.663914 11.399151 -6.502530 3.790596 -18.993172 21.008278 
1.513015 59.718987 -1.098688 120.972687 1.262984 1.255929 6.428684 -16.467962 0.546044 -7.480575 24.115244 -14.110820 8.418687 -10.655177 0.570974 -7.029381 -0.668217 5.260948 -2.775741 -24.000366 -4.894485 -0.894947 31.723112 4.712221 2.550749 -13.752774 1.660563 -9.386230 10.347103 1.820525 -1.454947 33.808617 -0.685549 -1.595170 -2.196442 0.859949 -1.036117 5.128628 0.166888 -4.086508 -10.113402 -1.651694 -1.850774 -4.531305 1.435020 -10.338094 4.521142 -20.334930 -0.255172 2.854819 -40.464710 -26.540850 3.592802 2.837205 -5.891682 -11.488677 8.916192 8.842654 3.328591 14.553742 4.255785 0.993563 43.458572 34.663914 11.399151 -6.502530 3.790596 -18.993172 21.008278 
1.507682 59.763397 -0.894429 119.958099 1.212174 0.822169 6.192399 -15.112732 1.047468 -6.196993 22.441536 -12.381540 9.410687 -10.148003 -0.300861 -3.998671 -5.207218 3.768830 -2.833347 -23.161909 -3.607794 0.167926 28.946026 5.546084 0.944826 -13.872293 -0.668606 -11.462571 9.645615 -2.702080 -1.073671 31.411694 -0.282318 -1.480796 -0.869887 0.992303 -0.924221 5.787585 0.086012 -3.091081 -9.973488 -2.481446 -1.637263 -5.441159 1.195329 -9.187595 5.536891 -19.947443 1.284245 3.412985 -39.506359 -27.661276 3.522658 1.752574 -6.166523 -13.818847 5.687226 9.032500 4.718282 14.120766 4.049562 1.453156 41.694569 33.986691 11.167089 -5.000688 4.925821 -19.433075 19.681761 
1.540047 59.785763 -0.763496 119.003662 1.469774 0.390035 6.192399 -15.112732 1.047468 -6.196993 22.441536 -12.381540 9.410687 -10.148003 -0.300861 -3.998671 -5.207218 3.768830 -2.833347 -23.161909 -3.607794 0.167926 28.946026 5.546084 0.944826 -13.872293 -0.668606 -11.462571 9.645615 -2.702080 -1.073671 31.411694 -0.282318 -1.480796 -0.869887 0.992303 -0.924221 5.787585 0.086012 -3.091081 -9.973488 -2.481446 -1.637263 -5.441159 1.195329 -9.187595 5.536891 -19.947443 1.284245 3.412985 -39.506359 -27.661276 3.522658 1.752574 -6.166523 -13.818847 5.687226 9.032500 4.718282 14.120766 4.049562 1.453156 41.694569 33.986691 11.167089 -5.000688 4.925821 -19.433075 19.681761 
1.614715 59.756027 -0.746729 118.278625 1.653557 0.016035 5.382835 -15.085293 1.476372 -5.528846 21.675848 -11.192027 11.418403 -9.990487 -1.202921 -5.819332 -5.229538 4.514493 -2.469166 -24.139692 -2.478431 0.545957 28.182840 5.874101 0.231412 -13.440218 -1.921988 -8.660227 12.062535 -4.622120 -0.977106 30.062061 0.099005 -1.190748 -0.250819 1.001629 -0.888005 6.281243 -0.033447 -2.641625 -10.236873 -2.984919 -1.385767 -6.257856 1.127297 -7.912214 6.297271 -19.622005 2.801561 4.595380 -39.055920 -27.437428 3.829888 1.053229 -6.764747 -10.982204 5.322618 8.534687 5.486619 13.688016 3.154165 2.588587 40.520008 34.078350 12.453351 -3.707171 6.811416 -18.158453 18.750143 
1.706673 59.694469 -0.818868 117.699181 2.129140 -0.279739 5.382835 -15.085293 1.476372 -5.528846 21.675848 -11.192027 11.418403 -9.990487 -1.202921 -5.819332 -5.229538 4.514493 -2.469166 -24.139692 -2.478431 0.545957 28.182840 5.874101 0.231412 -13.440218 -1.921988 -8.660227 12.062535 -4.622120 -0.977106 30.062061 0.099005 -1.190748 -0.250819 1.001629 -0.888005 6.281243 -0.033447 -2.641625 -10.236873 -2.984919 -1.385767 -6.257856 1.127297 -7.912214 6.297271 -19.622005 2.801561 4.595380 -39.055920 -27.437428 3.829888 1.053229 -6.764747 -10.982204 5.322618 8.534687 5.486619 13.688016 3.154165 2.588587 40.520008 34.078350 12.453351 -3.707171 6.811416 -18.158453 18.750143 
1.834560 59.625069 -0.939735 117.279358 2.535686 -0.512781 4.424089 -16.165483 1.851844 -4.614488 21.762938 -10.637330 12.532246 -9.905722 -0.284267 -3.242117 -5.427047 6.005583 -1.982595 -26.172688 -2.028046 -0.077088 28.848064 5.643783 -0.730957 -12.767043 -1.864032 -11.293116 13.436992 -7.923572 -1.138912 29.515697 0.244781 -1.219996 0.226777 1.173531 -0.840233 6.402572 0.053833 -2.349042 -10.958521 -2.893861 -1.456738 -6.344709 1.075550 -6.420607 7.091434 -19.706003 3.599546 5.366134 -39.672195 -25.927813 2.789245 1.114893 -8.619415 -8.483524 9.257952 7.238798 5.663977 13.517866 3.400644 4.407332 40.796856 32.618713 11.978992 -3.484110 8.883648 -18.962276 14.291145 
2.005278 59.553577 -0.988754 116.461426 3.243447 -0.816428 4.424089 -16.165483 1.851844 -4.614488 21.762938 -10.637330 12.532246 -9.905722 -0.284267 -3.242117 -5.427047 6.005583 -1.982595 -26.172688 -2.028046 -0.077088 28.848064 5.643783 -0.730957 -12.767043 -1.864032 -11.293116 13.436992 -7.923572 -1.138912 29.515697 0.244781 -1.219996 0.226777 1.173531 -0.840233 6.402572 0.053833 -2.349042 -10.958521 -2.893861 -1.456738 -6.344709 1.075550 -6.420607 7.091434 -19.706003 3.599546 5.366134 -39.672195 -25.927813 2.789245 1.114893 -8.619415 -8.483524 9.257952 7.238798 5.663977 13.517866 3.400644 4.407332 40.796856 32.618713 11.978992 -3.484110 8.883648 -18.962276 14.291145 
2.179659 59.471786 -1.080628 115.199234 3.909557 -1.009792 2.829436 -17.871941 2.806596 -2.837155 22.146418 -10.641581 13.849410 -10.193775 0.479774 1.408082 -7.088046 6.866078 -1.848214 -28.417347 -1.676679 -0.207992 29.121595 5.965347 -2.282674 -14.773399 -2.696543 -14.941775 13.327794 -13.330060 -0.713973 28.805601 0.434533 -0.966880 0.980329 0.916402 -0.406052 6.655709 -0.031971 -2.214802 -11.379586 -2.587689 -1.929035 -6.990273 1.764783 -5.378021 7.568859 -19.113640 4.276629 5.593857 -41.199863 -23.525467 3.142871 0.158610 -10.419876 -7.384746 12.375657 6.250561 5.548788 12.427365 4.257886 6.062924 43.340313 28.473963 14.866327 -1.973351 10.894017 -17.354387 6.840816 
2.330488 59.430038 -1.203217 113.939720 5.107661 -1.174781 2.829436 -17.871941 2.806596 -2.837155 22.146418 -10.641581 13.849410 -10.193775 0.479774 1.408082 -7.088046 6.866078 -1.848214 -28.417347 -1.676679 -0.207992 29.121595 5.965347 -2.282674 -14.773399 -2.696543 -14.941775 13.327794 -13.330060 -0.713973 28.805601 0.434533 -0.966880 0.980329 0.916402 -0.406052 6.655709 -0.031971 -2.214802 -11.379586 -2.587689 -1.929035 -6.990273 1.764783 -5.378021 7.568859 -19.113640 4.276629 5.593857 -41.199863 -23.525467 3.142871 0.158610 -10.419876 -7.384746 12.375657 6.250561 5.548788 12.427365 4.257886 6.062924 43.340313 28.473963 14.866327 -1.973351 10.894017 -17.354387 6.840816 
2.481935 59.451038 -1.380177 112.759644 6.281291 -1.304248 0.909542 -20.957075 3.940659 -0.911745 23.354824 -10.849051 15.804568 -10.871003 -0.470949 2.076485 -8.955959 7.086124 -1.209565 -31.465652 -2.091366 -0.257492 31.112494 6.984439 -2.657260 -19.085789 -1.542928 -14.853051 13.630223 -16.527617 -0.279194 27.874483 0.265046 -0.629336 1.209293 0.895906 -0.476034 6.548320 0.010600 -2.571844 -12.753353 -2.749484 -2.723814 -7.499530 2.224595 -3.849211 8.338941 -19.423845 3.691302 6.661435 -43.658302 -19.474352 3.694650 -0.516309 -11.524426 -1.072258 19.387218 4.966432 4.986255 12.837628 4.804936 8.258973 45.420364 24.547340 16.500906 -1.399356 12.961432 -17.291344 1.190933 
2.648851 59.507389 -1.611962 111.928741 7.511586 -1.288244 0.909542 -20.957075 3.940659 -0.911745 23.354824 -10.849051 15.804568 -10.871003 -0.470949 2.076485 -8.955959 7.086124 -1.209565 -31.465652 -2.091366 -0.257492 31.112494 6.984439 -2.657260 -19.085789 -1.542928 -14.853051 13.630223 -16.527617 -0.279194 27.874483 0.265046 -0.629336 1.209293 0.895906 -0.476034 6.548320 0.010600 -2.571844 -12.753353 -2.749484 -2.723814 -7.499530 2.224595 -3.849211 8.338941 -19.423845 3.691302 6.661435 -43.658302 -19.474352 3.694650 -0.516309 -11.524426 -1.072258 19.387218 4.966432 4.986255 12.837628 4.804936 8.258973 45.420364 24.547340 16.500906 -1.399356 12.961432 -17.291344 1.190933 
2.834775 59.472893 -1.796534 111.371071 8.731506 -1.083591 0.051256 -24.046001 4.426542 -0.178198 24.311991 -11.620417 17.180370 -12.393501 0.874125 1.687099 -4.122099 10.127653 0.214564 -32.437099 -2.937382 -0.261893 30.390236 7.376397 -2.165261 -18.407024 0.942387 -15.222619 12.098167 -16.663248 -0.668974 26.729765 -0.545999 -0.803984 1.397956 1.158777 -0.400194 6.356779 0.082752 -2.256453 -14.525728 -2.428019 -3.555366 -7.172888 2.360138 -2.212765 9.466055 -20.146753 3.111642 7.860767 -45.839241 -17.106112 3.330323 -0.369403 -13.503255 2.348101 24.001307 3.193869 4.551703 13.538565 5.995526 10.113049 48.143639 21.537043 19.363876 -1.337175 14.936850 -15.124049 -3.722574 
